<?xml version="1.0" encoding="utf-8"?><svg xmlns="http://www.w3.org/2000/svg" xmlns:xlink="http://www.w3.org/1999/xlink"><symbol viewBox="0 0 40.01 37.38" id="24-7" xmlns="http://www.w3.org/2000/svg"><g clip-path="url(#aprefix__clip0)"><path d="M12.342 38.69a.78.78 0 01-.781-.782v-5.102a16.17 16.17 0 01-8.103-5.467A15.9 15.9 0 010 17.379C0 8.52 7.209 1.31 16.069 1.31h7.862C32.791 1.31 40 8.52 40 17.38c0 2.736-.7 5.438-2.025 7.815a.781.781 0 11-1.365-.761 14.516 14.516 0 001.828-7.055c0-7.999-6.508-14.506-14.507-14.506H16.07c-8 0-14.507 6.507-14.507 14.506a14.48 14.48 0 0010.97 14.072c.347.087.59.4.59.758v3.813l3.909-3.908a.781.781 0 01.552-.228h6.347c2.953 0 5.795-.882 8.217-2.55a.781.781 0 01.887 1.286 15.98 15.98 0 01-9.104 2.826h-6.024l-5.012 5.013a.781.781 0 01-.553.229z"/><path d="M35.239 28.448a.787.787 0 01-.552-.229.787.787 0 01-.23-.552.787.787 0 01.781-.781c.206 0 .408.084.553.229a.787.787 0 01.23.552.787.787 0 01-.23.552.787.787 0 01-.552.23zm-14.997-11.85h-.204V13.64a.781.781 0 00-1.563 0v2.957H16.03V13.64a.781.781 0 10-1.563 0v3.738c0 .432.35.781.782.781h3.226v2.965a.781.781 0 101.563 0V18.16h.204a.781.781 0 100-1.562zm-8.724 5.309H7.776a.781.781 0 01-.552-1.334l2.419-2.419a3.711 3.711 0 001.094-2.642 1.091 1.091 0 00-2.18 0 .781.781 0 11-1.562 0 2.655 2.655 0 012.652-2.652 2.655 2.655 0 012.653 2.652 5.264 5.264 0 01-1.552 3.747l-1.086 1.085h1.856a.781.781 0 010 1.563zm16.963 0a.781.781 0 01-.698-1.13l3.177-6.355h-2.478a.781.781 0 110-1.562h3.742a.781.781 0 01.698 1.13l-3.742 7.485a.781.781 0 01-.699.432zM22.84 23.16a.781.781 0 01-.755-.984l2.678-9.999a.781.781 0 011.51.405l-2.68 10a.782.782 0 01-.754.579z"/></g><defs><clipPath id="aprefix__clip0"><path d="M0 0h40v40H0z"/></clipPath></defs></symbol><symbol viewBox="0 0 41 40" id="car" xmlns="http://www.w3.org/2000/svg"><g clip-path="url(#bclip0)"><path d="M24.427 17.682l5.212 3.707a.668.668 0 00.774 0l5.213-3.707a4.119 4.119 0 001.74-3.343V6.451a.667.667 0 00-.4-.612l-6.673-2.88a.668.668 0 00-.528 0l-6.673 2.88a.667.667 0 00-.4.612v7.888a4.12 4.12 0 001.735 3.343zM24.02 6.889l6.005-2.591 6.006 2.591v7.45a2.784 2.784 0 01-1.18 2.261l-4.826 3.428-4.825-3.432a2.783 2.783 0 01-1.18-2.257V6.89z"/><path d="M28.292 15.867a.668.668 0 00.921-.117l5.338-6.667a.666.666 0 10-1.042-.833l-4.938 6.163-2.148-1.613a.668.668 0 00-.8 1.067l2.669 2z"/><path d="M1.335 35.333h.667V38a2 2 0 002.002 2h4.003a2 2 0 002.002-2v-2.667h16.014V38a2 2 0 002.002 2h4.003a2 2 0 002.002-2v-2.667h.667c.737 0 1.335-.597 1.335-1.333V24a3.297 3.297 0 00-1.154-2.513l2.295-1.632a6.79 6.79 0 002.862-5.516V4.7a.667.667 0 00-.4-.612L30.293.055a.668.668 0 00-.528 0l-9.347 4.032a.667.667 0 00-.4.612v2.634H9.922A3.336 3.336 0 006.777 9.56l-3.93 11.157A3.33 3.33 0 000 24v10c0 .736.597 1.333 1.335 1.333zM8.675 38a.667.667 0 01-.668.667H4.004A.667.667 0 013.336 38v-2.667h5.338V38zm-2.67-4H4.671v-1.333h1.334V34zm26.69 4a.667.667 0 01-.667.667h-4.003a.667.667 0 01-.668-.667v-2.667h5.338V38zm-1.334-4h-1.335v-1.333h1.335V34zM21.352 5.137l8.674-3.744 8.675 3.744v9.2a5.454 5.454 0 01-2.302 4.429l-6.373 4.535-6.372-4.533a5.454 5.454 0 01-2.302-4.429V5.137zm10.009 19.53c.368 0 .667.298.667.666v1.334a.667.667 0 01-.667.666h-4.004a.667.667 0 01-.667-.666 2 2 0 012.002-2h2.669zM20.018 11.333v1.334h-4.671v-1.334h4.67zm0-1.333h-1.335V8.667h1.335V10zM8.036 10a2.002 2.002 0 011.886-1.333h7.427V10h-2.002c-.737 0-1.335.597-1.335 1.333v1.334c0 .736.598 1.333 1.335 1.333h4.67v.34a6.79 6.79 0 002.863 5.515l1.141.812H4.278L8.036 10zM1.335 24a2 2 0 012.001-2h22.56l2.017 1.435a3.334 3.334 0 00-2.557 3.232 2 2 0 002.001 2h4.004a2 2 0 002.002-2v-1.334a2 2 0 00-1.278-1.859l1.652-1.175c.598.358.963 1.004.96 1.701v10h-2.002v-1.333c0-.737-.597-1.334-1.334-1.334h-1.335c-.737 0-1.334.597-1.334 1.334V34H7.34v-1.333c0-.737-.598-1.334-1.335-1.334H4.671c-.737 0-1.335.597-1.335 1.334V34H1.335V24z"/><path d="M12.01 10h-1.14a2.006 2.006 0 00-1.888 1.333l-2.505 7.112a.667.667 0 101.259.443l2.505-7.11a.667.667 0 01.629-.445h1.142a.667.667 0 100-1.333zM4.67 28.667h4.004a2 2 0 002.002-2 3.339 3.339 0 00-3.336-3.334H4.67a2 2 0 00-2.001 2v1.334a2 2 0 002.002 2zm-.667-3.334c0-.368.3-.666.668-.666H7.34a2 2 0 012.001 2 .667.667 0 01-.667.666H4.671a.667.667 0 01-.668-.666v-1.334zm9.342 7.334h9.342c.737 0 1.334-.597 1.334-1.334v-2.666c0-.737-.597-1.334-1.334-1.334h-9.342c-.737 0-1.335.597-1.335 1.334v2.666c0 .737.598 1.334 1.335 1.334zm0-4h9.342v2.666h-9.342v-2.666z"/></g><defs><clipPath id="bclip0"><path d="M0 0h40.035v40H0z"/></clipPath></defs></symbol><symbol viewBox="0 0 28 32" id="cart" xmlns="http://www.w3.org/2000/svg"><path d="M21 10V7.05A7.002 7.002 0 009.05 2.1 7 7 0 007 7.05v7a1 1 0 102 0V12h8v-2H9V7.05a5 5 0 1110 0V14a1 1 0 002 0v-2h5v18H2V12h3v-2H0v20.09A1.91 1.91 0 001.91 32h24.18A1.91 1.91 0 0028 30.09V10h-7z"/></symbol><symbol viewBox="0 0 40 40" id="clock" xmlns="http://www.w3.org/2000/svg"><path d="M35.732 7.651h1.236a.78.78 0 000-1.561h-2.967a.78.78 0 00-.78.78v2.967a.78.78 0 001.56 0v-.859A18.378 18.378 0 0138.439 20c0 10.167-8.27 18.438-18.438 18.438-10.167 0-18.439-8.27-18.439-18.438C1.561 9.833 9.833 1.561 20 1.561c.752 0 1.509.046 2.25.136a.781.781 0 00.188-1.55A20.283 20.283 0 0020 0 19.869 19.869 0 005.858 5.858 19.869 19.869 0 000 20c0 5.342 2.08 10.365 5.858 14.142A19.869 19.869 0 0020 40c5.342 0 10.365-2.08 14.142-5.858A19.869 19.869 0 0040 20c0-4.508-1.506-8.836-4.268-12.349z"/><path d="M8.469 11.79a.78.78 0 00-1.078.242 14.969 14.969 0 00-2.221 9.533 14.947 14.947 0 004.285 8.98A14.866 14.866 0 0020 34.905c3.819 0 7.637-1.453 10.544-4.36 5.815-5.815 5.815-15.275 0-21.09a14.948 14.948 0 00-8.965-4.284 14.97 14.97 0 00-9.521 2.204.78.78 0 10.832 1.321C18.194 5.353 25 6.12 29.44 10.56c5.206 5.205 5.206 13.675 0 18.88-5.205 5.206-13.675 5.206-18.88 0-4.38-4.379-5.157-11.349-1.85-16.572a.781.781 0 00-.241-1.078z"/><path d="M30.15 20.793h.962a.78.78 0 000-1.561h-.962a.78.78 0 000 1.561zm-22.043-.806c0 .432.35.781.78.781h.963a.78.78 0 000-1.561h-.962a.78.78 0 00-.781.78zM20.793 9.85v-.962a.78.78 0 00-1.561 0v.962a.78.78 0 001.561 0zm-1.587 20.3v.963a.78.78 0 001.562 0v-.963a.78.78 0 00-1.562 0zm-3.119-15.168a.781.781 0 00-1.104 1.105l2.646 2.646A2.667 2.667 0 0017.31 20 2.693 2.693 0 0020 22.69a2.693 2.693 0 002.372-3.957l5.339-5.34a.78.78 0 00-1.105-1.104l-5.339 5.34a2.674 2.674 0 00-2.535 0l-2.645-2.647zM21.128 20A1.13 1.13 0 1120 18.872 1.13 1.13 0 0121.128 20zM10.56 10.56a.784.784 0 00.229-.553.785.785 0 00-.782-.78.787.787 0 00-.552.228.787.787 0 00-.228.552.785.785 0 00.78.781.786.786 0 00.552-.229zm14.848-8.227a.784.784 0 00.782-.781.786.786 0 00-.23-.552.787.787 0 00-.552-.229.786.786 0 00-.552.229.787.787 0 00-.229.552.785.785 0 00.781.78z"/></symbol><symbol viewBox="0 0 284.929 284.929" id="double-left-arrow" xmlns="http://www.w3.org/2000/svg"><path d="M165.304 142.468L277.517 30.267c1.902-1.903 2.847-4.093 2.847-6.567 0-2.475-.951-4.665-2.847-6.567L263.239 2.857C261.337.955 259.146 0 256.676 0c-2.478 0-4.665.955-6.571 2.857L117.057 135.9c-1.903 1.903-2.853 4.093-2.853 6.567 0 2.475.95 4.664 2.853 6.567l133.048 133.043c1.903 1.906 4.086 2.851 6.564 2.851 2.478 0 4.66-.947 6.563-2.851l14.277-14.267c1.902-1.903 2.851-4.094 2.851-6.57 0-2.472-.948-4.661-2.851-6.564L165.304 142.468z"/><path d="M55.668 142.468L167.87 30.267c1.903-1.903 2.851-4.093 2.851-6.567 0-2.475-.947-4.665-2.851-6.567L153.6 2.857C151.697.955 149.507 0 147.036 0c-2.478 0-4.668.955-6.57 2.857L7.417 135.9c-1.903 1.903-2.853 4.093-2.853 6.567 0 2.475.95 4.664 2.853 6.567l133.048 133.043c1.902 1.906 4.09 2.851 6.57 2.851 2.471 0 4.661-.947 6.563-2.851l14.271-14.267c1.903-1.903 2.851-4.094 2.851-6.57 0-2.472-.947-4.661-2.851-6.564L55.668 142.468z"/></symbol><symbol viewBox="0 0 284.936 284.936" id="double-right-arrow" xmlns="http://www.w3.org/2000/svg"><path d="M277.515 135.9L144.464 2.857C142.565.955 140.375 0 137.9 0c-2.472 0-4.659.955-6.562 2.857l-14.277 14.275c-1.903 1.903-2.853 4.089-2.853 6.567 0 2.478.95 4.664 2.853 6.567L229.268 142.47 117.062 254.677c-1.903 1.903-2.853 4.093-2.853 6.564 0 2.477.95 4.667 2.853 6.57l14.277 14.271c1.902 1.905 4.089 2.854 6.562 2.854 2.478 0 4.665-.951 6.563-2.854l133.051-133.044c1.902-1.902 2.851-4.093 2.851-6.567s-.949-4.664-2.851-6.571z"/><path d="M170.732 142.471c0-2.474-.947-4.665-2.857-6.571L34.833 2.857C32.931.955 30.741 0 28.267 0S23.602.955 21.7 2.857L7.426 17.133C5.52 19.036 4.57 21.222 4.57 23.7c0 2.478.95 4.664 2.856 6.567L119.63 142.471 7.426 254.677c-1.906 1.903-2.856 4.093-2.856 6.564 0 2.477.95 4.667 2.856 6.57l14.273 14.271c1.903 1.905 4.093 2.854 6.567 2.854s4.664-.951 6.567-2.854l133.042-133.044c1.91-1.902 2.857-4.093 2.857-6.567z"/></symbol><symbol viewBox="0 0 451.847 451.847" id="down-arrow" xmlns="http://www.w3.org/2000/svg"><path d="M225.923 354.706c-8.098 0-16.195-3.092-22.369-9.263L9.27 151.157c-12.359-12.359-12.359-32.397 0-44.751 12.354-12.354 32.388-12.354 44.748 0l171.905 171.915 171.906-171.909c12.359-12.354 32.391-12.354 44.744 0 12.365 12.354 12.365 32.392 0 44.751L248.292 345.449c-6.177 6.172-14.274 9.257-22.369 9.257z"/></symbol><symbol viewBox="0 0 492 492" id="left-arrow" xmlns="http://www.w3.org/2000/svg"><path d="M198.608 246.104L382.664 62.04c5.068-5.056 7.856-11.816 7.856-19.024 0-7.212-2.788-13.968-7.856-19.032l-16.128-16.12C361.476 2.792 354.712 0 347.504 0s-13.964 2.792-19.028 7.864L109.328 227.008c-5.084 5.08-7.868 11.868-7.848 19.084-.02 7.248 2.76 14.028 7.848 19.112l218.944 218.932c5.064 5.072 11.82 7.864 19.032 7.864 7.208 0 13.964-2.792 19.032-7.864l16.124-16.12c10.492-10.492 10.492-27.572 0-38.06L198.608 246.104z"/></symbol><symbol viewBox="0 0 22 21" id="mobile" xmlns="http://www.w3.org/2000/svg"><path d="M16.946 20.658a2.86 2.86 0 01-.611-.067 20.723 20.723 0 01-10.157-5.348 19.99 19.99 0 01-5.5-9.93 2.799 2.799 0 01.825-2.616L3.948.344a1.222 1.222 0 01.94-.33 1.222 1.222 0 01.887.532l3.056 4.516a.978.978 0 01-.068 1.161L7.23 8.057a11.574 11.574 0 002.549 3.6 11.77 11.77 0 003.71 2.499l1.9-1.51a1.003 1.003 0 011.136-.073l4.614 2.982a1.22 1.22 0 01.25 1.9l-2.382 2.36a2.9 2.9 0 01-2.06.843zM4.791 1.224L2.347 3.577a1.552 1.552 0 00-.459 1.467 18.76 18.76 0 005.14 9.325 19.495 19.495 0 009.558 5.03 1.68 1.68 0 001.527-.452l2.384-2.36-4.455-2.878L14 15.335a.613.613 0 01-.563.104 12.26 12.26 0 01-4.497-2.903 11.91 11.91 0 01-2.977-4.4.611.611 0 01.147-.58l1.65-1.974-2.97-4.358z"/></symbol><symbol viewBox="0 0 492.004 492.004" id="right-arrow" xmlns="http://www.w3.org/2000/svg"><path d="M382.678 226.804L163.73 7.86C158.666 2.792 151.906 0 144.698 0s-13.968 2.792-19.032 7.86l-16.124 16.12c-10.492 10.504-10.492 27.576 0 38.064L293.398 245.9l-184.06 184.06c-5.064 5.068-7.86 11.824-7.86 19.028 0 7.212 2.796 13.968 7.86 19.04l16.124 16.116c5.068 5.068 11.824 7.86 19.032 7.86s13.968-2.792 19.032-7.86L382.678 265c5.076-5.084 7.864-11.872 7.848-19.088.016-7.244-2.772-14.028-7.848-19.108z"/></symbol><symbol viewBox="0 0 24 24" id="search" xmlns="http://www.w3.org/2000/svg"><path d="M23.648 22.034l-7.608-7.608a8.71 8.71 0 001.82-5.356 8.74 8.74 0 00-2.576-6.214A8.724 8.724 0 009.07.281a8.736 8.736 0 00-6.214 2.575A8.72 8.72 0 00.281 9.07c0 2.347.917 4.556 2.575 6.214A8.72 8.72 0 009.07 17.86a8.718 8.718 0 005.353-1.816l7.608 7.605a.238.238 0 00.262.053.237.237 0 00.078-.053l1.277-1.274a.238.238 0 00.053-.262.238.238 0 00-.053-.078zm-9.937-8.323a6.527 6.527 0 01-4.64 1.922A6.527 6.527 0 014.43 13.71a6.527 6.527 0 01-1.922-4.64c0-1.753.682-3.402 1.922-4.641a6.527 6.527 0 014.64-1.922 6.51 6.51 0 014.64 1.922 6.527 6.527 0 011.923 4.64 6.522 6.522 0 01-1.922 4.64z"/></symbol><symbol viewBox="0 0 41 40" id="warranty" xmlns="http://www.w3.org/2000/svg"><g clip-path="url(#lclip0)"><path d="M28.397 12.288a.547.547 0 00-.386.16l-9.525 9.524-5.481-5.481a.562.562 0 00-.773 0l-2.21 2.21a.547.547 0 000 .773l8.079 8.078a.547.547 0 00.773 0l12.12-12.12a.548.548 0 000-.774l-2.21-2.21a.547.547 0 00-.387-.16zm-9.91 14.104l-7.305-7.305 1.438-1.437 5.48 5.482a.547.547 0 00.774 0l9.523-9.524 1.438 1.438-11.349 11.346z"/><path d="M20.507 5.104A14.897 14.897 0 1035.403 20 14.913 14.913 0 0020.507 5.104zm0 28.699A13.803 13.803 0 1134.309 20a13.818 13.818 0 01-13.802 13.803z"/><path d="M39.89 21.754a2.789 2.789 0 000-3.508l-.895-1.119a1.714 1.714 0 01-.308-1.55l.4-1.372a2.824 2.824 0 00-1.345-3.246l-1.252-.688a1.711 1.711 0 01-.88-1.312l-.156-1.424a2.788 2.788 0 00-2.482-2.481l-1.423-.157a1.712 1.712 0 01-1.313-.879l-.687-1.252a2.789 2.789 0 00-3.247-1.346l-1.372.4a1.716 1.716 0 01-1.55-.308L22.26.616a2.79 2.79 0 00-3.507 0l-1.12.896a1.719 1.719 0 01-1.549.307l-1.372-.4a2.823 2.823 0 00-3.246 1.346l-.688 1.252a1.713 1.713 0 01-1.313.88l-1.423.156a2.789 2.789 0 00-2.481 2.482l-.157 1.423a1.712 1.712 0 01-.88 1.313l-1.252.687a2.79 2.79 0 00-1.345 3.247l.4 1.372a1.716 1.716 0 01-.307 1.55l-.897 1.119a2.79 2.79 0 000 3.508l.897 1.118a1.713 1.713 0 01.307 1.55l-.4 1.372a2.823 2.823 0 001.345 3.247l1.252.688a1.714 1.714 0 01.88 1.312l.156 1.424a2.789 2.789 0 002.481 2.481l1.424.157a1.713 1.713 0 011.312.879l.688 1.252a2.789 2.789 0 003.247 1.346l1.371-.4a1.72 1.72 0 011.55.307l1.12.896a2.789 2.789 0 003.508 0l1.118-.896a1.716 1.716 0 011.55-.307l1.372.4a2.79 2.79 0 003.247-1.346l.687-1.252a1.713 1.713 0 011.313-.88l1.423-.156a2.788 2.788 0 002.482-2.481l.156-1.424a1.712 1.712 0 01.88-1.312l1.252-.688a2.79 2.79 0 001.345-3.247l-.4-1.371a1.716 1.716 0 01.308-1.55l.897-1.119zm-1.75.435a2.808 2.808 0 00-.503 2.54l.4 1.372a1.703 1.703 0 01-.82 1.98l-1.253.688a2.805 2.805 0 00-1.441 2.154l-.156 1.423a1.703 1.703 0 01-1.515 1.515l-1.423.156a2.808 2.808 0 00-2.153 1.44l-.688 1.253a1.703 1.703 0 01-1.98.822l-1.373-.4a2.809 2.809 0 00-2.54.503l-1.118.896a1.702 1.702 0 01-2.141 0l-1.119-.896a2.811 2.811 0 00-2.54-.504l-1.371.4a1.704 1.704 0 01-1.981-.821l-.688-1.253a2.806 2.806 0 00-2.153-1.44L8.16 33.86a1.703 1.703 0 01-1.515-1.514l-.156-1.424a2.807 2.807 0 00-1.441-2.153l-1.253-.687a1.723 1.723 0 01-.82-1.981l.4-1.372a2.809 2.809 0 00-.504-2.54l-.896-1.118a1.702 1.702 0 010-2.142l.896-1.118a2.81 2.81 0 00.504-2.54l-.4-1.372a1.702 1.702 0 01.82-1.98l1.254-.688a2.805 2.805 0 001.44-2.154l.156-1.423A1.703 1.703 0 018.163 6.14l1.424-.156a2.808 2.808 0 002.153-1.44l.687-1.253a1.724 1.724 0 011.979-.822l1.372.4a2.808 2.808 0 002.54-.503l1.118-.897a1.702 1.702 0 012.141 0l1.12.896a2.813 2.813 0 002.54.504l1.37-.4a1.704 1.704 0 011.982.821l.687 1.253a2.807 2.807 0 002.154 1.44l1.423.157a1.703 1.703 0 011.514 1.514l.157 1.424a2.808 2.808 0 001.44 2.153l1.253.687a1.724 1.724 0 01.821 1.981l-.4 1.372a2.809 2.809 0 00.503 2.54l.897 1.118a1.702 1.702 0 010 2.142l-.897 1.118z"/></g><defs><clipPath id="lclip0"><path transform="translate(.507)" d="M0 0h40v40H0z"/></clipPath></defs></symbol></svg>