<svg width="26" height="26" fill="none" xmlns="http://www.w3.org/2000/svg"><path d="M24.073 8.826a.406.406 0 00-.26.513c.384 1.178.579 2.41.579 3.661 0 3.15-1.226 6.11-3.453 8.337a11.713 11.713 0 01-8.337 3.453c-3.149 0-6.11-1.227-8.336-3.453A11.713 11.713 0 01.812 13c0-3.15 1.227-6.11 3.454-8.337a11.712 11.712 0 018.336-3.453 11.75 11.75 0 018.646 3.775.406.406 0 10.596-.553A12.56 12.56 0 0012.602.398a12.52 12.52 0 00-8.91 3.69A12.52 12.52 0 000 13c0 3.366 1.31 6.53 3.691 8.911a12.52 12.52 0 008.911 3.691c3.366 0 6.531-1.31 8.911-3.691A12.52 12.52 0 0025.204 13c0-1.337-.208-2.654-.62-3.913a.406.406 0 00-.511-.26z" fill="#FE7B02"/><path d="M25.643 4.228a1.21 1.21 0 00-.862-.357 1.21 1.21 0 00-.862.357l-.364.364a.406.406 0 10.574.574l.364-.364a.403.403 0 01.575 0 .404.404 0 010 .576L11.06 19.386a.404.404 0 01-.575 0l-5.47-5.471a.404.404 0 010-.575.403.403 0 01.575 0l4.896 4.896a.407.407 0 00.574 0L22.986 6.31a.406.406 0 10-.575-.575L10.774 17.374l-4.609-4.609a1.21 1.21 0 00-.862-.357 1.21 1.21 0 00-.862.357c-.23.23-.357.537-.357.862 0 .326.127.632.357.862l5.47 5.471c.23.23.537.357.863.357.326 0 .632-.127.862-.357L25.643 5.952c.23-.23.357-.536.357-.862 0-.326-.127-.632-.357-.862z" fill="#FE7B02"/></svg>