<svg viewBox="0 0 30 29" fill="none" xmlns="http://www.w3.org/2000/svg">
<path d="M23.1083 28.5334C22.8281 28.5326 22.5487 28.5019 22.275 28.4418C17.0639 27.3638 12.263 24.8362 8.425 21.1501C4.66889 17.4558 2.06383 12.7522 0.925004 7.60842C0.790722 6.96735 0.82368 6.3025 1.02071 5.67785C1.21774 5.0532 1.5722 4.48977 2.05 4.04176L5.38334 0.833422C5.55359 0.672412 5.75589 0.549113 5.97702 0.471574C6.19815 0.394034 6.43315 0.363997 6.66667 0.383422C6.90881 0.408683 7.14247 0.486683 7.35123 0.611937C7.55999 0.737192 7.73877 0.906659 7.875 1.10842L12.0417 7.26676C12.1979 7.50571 12.2733 7.78851 12.2568 8.07353C12.2403 8.35856 12.1328 8.63076 11.95 8.85009L9.85834 11.3501C10.6914 13.1938 11.8711 14.8602 13.3333 16.2584C14.7861 17.7074 16.5032 18.8644 18.3917 19.6668L20.9833 17.6084C21.201 17.4364 21.4659 17.3347 21.7428 17.3168C22.0196 17.299 22.2954 17.3658 22.5333 17.5084L28.825 21.5751C29.0409 21.704 29.2249 21.8801 29.363 22.0902C29.5012 22.3003 29.5901 22.5389 29.623 22.7882C29.6558 23.0376 29.6318 23.2911 29.5528 23.5298C29.4738 23.7685 29.3418 23.9863 29.1667 24.1668L25.9167 27.3834C25.5475 27.7508 25.1093 28.0415 24.6273 28.2389C24.1454 28.4362 23.6291 28.5363 23.1083 28.5334ZM6.53334 2.03342L3.2 5.24176C2.93121 5.49221 2.73224 5.80832 2.62266 6.15899C2.51307 6.50966 2.49665 6.88281 2.575 7.24176C3.63394 12.0685 6.0681 16.4853 9.58334 19.9584C13.1952 23.4264 17.713 25.8037 22.6167 26.8168C22.9878 26.8944 23.3725 26.8786 23.7361 26.771C24.0997 26.6634 24.4309 26.4672 24.7 26.2001L27.95 22.9834L21.875 19.0584L19.0917 21.2751C18.9851 21.3594 18.8596 21.4164 18.7259 21.4411C18.5923 21.4658 18.4547 21.4574 18.325 21.4168C16.0139 20.5653 13.9195 19.2136 12.1917 17.4584C10.4045 15.7894 9.01719 13.7384 8.13334 11.4584C8.09595 11.3204 8.0947 11.1751 8.12973 11.0364C8.16476 10.8978 8.23487 10.7705 8.33334 10.6668L10.5833 7.97509L6.53334 2.03342Z" fill="#FE7B02"/>
</svg>
