<svg viewBox="0 0 30 30" fill="none" xmlns="http://www.w3.org/2000/svg">
<path d="M7.5 17.8125C9.0533 17.8125 10.3125 16.5533 10.3125 15C10.3125 13.4467 9.0533 12.1875 7.5 12.1875C5.9467 12.1875 4.6875 13.4467 4.6875 15C4.6875 16.5533 5.9467 17.8125 7.5 17.8125Z" stroke="#FE7B02" stroke-width="1.5" stroke-linecap="round" stroke-linejoin="round"/>
<path d="M22.5 9.375C24.0533 9.375 25.3125 8.1158 25.3125 6.5625C25.3125 5.0092 24.0533 3.75 22.5 3.75C20.9467 3.75 19.6875 5.0092 19.6875 6.5625C19.6875 8.1158 20.9467 9.375 22.5 9.375Z" stroke="#FE7B02" stroke-width="1.5" stroke-linecap="round" stroke-linejoin="round"/>
<path d="M22.5 26.25C24.0533 26.25 25.3125 24.9908 25.3125 23.4375C25.3125 21.8842 24.0533 20.625 22.5 20.625C20.9467 20.625 19.6875 21.8842 19.6875 23.4375C19.6875 24.9908 20.9467 26.25 22.5 26.25Z" stroke="#FE7B02" stroke-width="1.5" stroke-linecap="round" stroke-linejoin="round"/>
<path d="M9.95096 16.3787L20.049 22.0587" stroke="#FE7B02" stroke-width="1.5" stroke-linecap="round" stroke-linejoin="round"/>
<path d="M20.049 7.94116L9.95096 13.6212" stroke="#FE7B02" stroke-width="1.5" stroke-linecap="round" stroke-linejoin="round"/>
</svg>
